<svg width="161" height="195" viewBox="0 0 161 195" fill="none" xmlns="http://www.w3.org/2000/svg">
<path d="M19.15 46.87C20.16 51.76 20.37 62.37 20.86 69.35C21.61 80.11 46.33 80.28 46.28 82.26C46.1 89.27 27.77 88.19 25.62 96.45C22.28 109.25 35.14 125.38 53.59 124.06C63.45 123.36 60.97 126.46 60.53 132.21C59.2 149.42 45.32 159.88 41.77 162.35C38.22 164.82 44.76 179.72 47.8 181.53C50.84 183.34 52.62 174.51 53.09 170.58C53.56 166.66 64.32 162.38 68.75 155.67C73.17 148.96 76.13 142.31 77.77 140.7C79.41 139.09 81.29 141.61 80.61 147.32C79.93 153.03 79.15 165.6 71.99 177.05C70 180.23 78.05 191.9 80.69 194.02C83.33 196.15 85.58 192.43 85.42 187.71C85.26 182.99 84.89 180.05 85.06 178.62C85.23 177.19 91.74 167.96 94.61 156.78C96.93 147.73 98.01 137.56 99.12 134.7C103.24 124.13 108.27 131.13 121.92 121.43C130.02 115.67 133.78 100.77 125.51 96.46C112.77 89.81 109.02 85.9 108.8 83.52C108.65 81.89 129.26 85.69 132.7 77.05C136.56 67.34 137.31 61.56 139.72 55.71C146.06 40.31 151.1 33.9 158.87 25.31C164.22 19.39 154.07 11.11 136.1 18.97C125.93 23.42 99.22 44.65 93.16 52.98C87.1 61.31 82.68 48.06 66.23 31.25C49.79 14.45 31.66 0.899986 15.47 0.0499858C-0.709994 -0.790014 -2.05999 8.55999 1.83001 13.06C16.14 29.61 15.72 30.18 19.15 46.87Z" fill="#5EC3B5"/>
</svg>
