<?xml version="1.0" encoding="UTF-8"?><svg id="Calque_2" xmlns="http://www.w3.org/2000/svg" viewBox="0 0 179.16 322.81"><defs><style>.cls-1{fill:#ea5178;}.cls-2{fill:#1d1d1b;}</style></defs><g id="Layer_1"><path class="cls-1" d="m69.83,132.22c-1.33,17.21-15.21,27.67-18.76,30.14-3.55,2.47,2.99,17.37,6.03,19.18s4.82-7.02,5.29-10.95c.47-3.92,11.23-8.2,15.66-14.91,4.42-6.71,7.38-13.36,9.02-14.97s3.52.91,2.84,6.62-1.46,18.28-8.62,29.73c-1.99,3.18,6.06,14.85,8.7,16.97s4.89-1.59,4.73-6.31-.53-7.66-.36-9.09,6.68-10.66,9.55-21.84c2.32-9.05,3.4-19.22,4.51-22.08,4.12-10.57,9.15-3.57,22.8-13.27,8.1-5.76,11.86-20.66,3.59-24.97-12.74-6.65-16.49-10.56-16.71-12.94-.15-1.63,20.46,2.17,23.9-6.47,3.86-9.71,4.61-15.49,7.02-21.34,6.34-15.4,11.38-21.81,19.15-30.4,5.35-5.92-4.8-14.2-22.77-6.34-10.17,4.45-36.88,25.68-42.94,34.01-6.06,8.32-10.48-4.92-26.93-21.73C59.1,14.45,40.96.9,24.78.05,8.59-.79,7.24,8.56,11.13,13.06c14.31,16.55,13.89,17.12,17.32,33.81,1.01,4.89,1.22,15.5,1.71,22.48.75,10.76,25.47,10.93,25.42,12.91-.18,7.01-18.51,5.93-20.66,14.19-3.34,12.8,9.52,28.93,27.97,27.61,9.86-.7,7.38,2.4,6.94,8.15Z"/><g><path class="cls-2" d="m10.31,257.67v23.36c0,1.28,1.71,1.83,3.84,1.83.49,0,.73.43.73.92,0,.55-.24.92-.73.92-.79,0-2.62-.18-6.71-.18s-5.86.18-6.71.18c-.49,0-.73-.43-.73-.92,0-.55.24-.92.73-.92,2.14,0,3.84-.61,3.84-1.83v-35.44c0-1.22-1.71-1.83-3.84-1.83-.49,0-.73-.55-.73-1.04,0-.55.24-1.04.73-1.04.85,0,2.99.18,8.85.18.73,0,1.04.43,1.04,1.34,0,1.53-.31,4.21-.31,14.46Z"/><path class="cls-2" d="m19.52,257.12c-.67,0-.98-.3-.98-.73,0-.18.06-.37.18-.55,2.68-4.94,3.36-9.76,3.36-14.21,0-.85.24-1.4,1.16-1.4h3.17c.92,0,1.71.49,1.71,1.77s-1.4,6.65-6.59,14.09c-.55.85-1.16,1.04-2.01,1.04Z"/><path class="cls-2" d="m39.47,269.51c0,9.82,4.27,13.42,9.15,13.42,3.72,0,6.89-1.77,8.48-4.88.37-.61.92-.85,1.59-.85.49,0,.92.43.61.98-1.1,2.5-4.27,7.08-12.2,7.08-7.44,0-14.09-6.04-14.09-15.07s6.53-15.07,14.46-15.07,12.75,6.59,12.75,12.93c-.73.24-4.21.61-11.35.61-3.97,0-5.92-.12-9.33-.3-.06.12-.06.61-.06,1.16Zm14.52-2.87c0-6.77-2.62-9.58-6.77-9.58s-7.02,2.99-7.56,9.58h14.34Z"/><path class="cls-2" d="m74.05,281.04c0,1.28,1.71,1.83,3.84,1.83.49,0,.73.43.73.92,0,.55-.24.92-.73.92-.79,0-2.62-.18-6.71-.18s-5.86.18-6.71.18c-.49,0-.73-.43-.73-.92,0-.55.24-.92.73-.92,2.13,0,3.84-.61,3.84-1.83v-21.53c0-1.22-1.71-1.83-3.84-1.83-.49,0-.73-.43-.73-.92,0-.55.24-.92.73-.92.85,0,2.44.18,8.3.18.73,0,.98.43,1.1,1.34.12.73.18,1.77.18,2.68,2.13-2.87,5.49-4.82,10.43-4.82,6.53,0,10.13,2.75,10.13,9.21v16.59c0,1.28,1.71,1.83,3.84,1.83.49,0,.73.43.73.92,0,.55-.24.92-.73.92-.79,0-2.62-.18-6.71-.18s-5.86.18-6.71.18c-.49,0-.73-.43-.73-.92,0-.55.24-.92.73-.92,2.13,0,3.84-.61,3.84-1.83v-16.04c0-4.51-1.95-7.2-5.98-7.2-4.64,0-8.85,2.68-8.85,8.48v14.76Z"/><path class="cls-2" d="m114.13,285.19c-.43,0-.85-.37-1.16-1.16l-8.91-21.11c-2.13-5-2.38-5.25-5.31-5.25-.49,0-.73-.43-.73-.92,0-.55.24-.92.73-.92.79,0,2.32.18,6.41.18s5.73-.18,6.59-.18c.49,0,.73.43.73.92,0,.55-.24.92-.73.92-1.83,0-2.81.49-2.81,1.89,0,.61.18,1.4.55,2.32l6.16,15.13c2.5-5.37,5-11.96,6.16-15.56.24-.73.37-1.46.37-1.95,0-1.22-.61-1.83-2.07-1.83-.49,0-.73-.37-.73-.92,0-.49.24-.92.73-.92.85,0,3.11.18,4.76.18s3.6-.18,4.39-.18c.49,0,.73.37.73.92,0,.49-.24.92-.73.92-3.17,0-3.6,1.1-7.87,11.47l-6.16,14.95c-.3.73-.67,1.1-1.1,1.1Z"/><path class="cls-2" d="m160.61,270.18c0,8.3-6.77,15.07-15.07,15.07s-15.07-6.77-15.07-15.07,6.77-15.07,15.07-15.07,15.07,6.77,15.07,15.07Zm-23.67,0c0,7.75,3.05,13.12,8.6,13.12,5.92,0,8.6-5.37,8.6-13.12s-2.99-13.12-8.6-13.12-8.6,5.12-8.6,13.12Z"/><path class="cls-2" d="m174.58,257.67v23.36c0,1.28,1.71,1.83,3.84,1.83.49,0,.73.43.73.92,0,.55-.24.92-.73.92-.79,0-2.62-.18-6.71-.18s-5.86.18-6.71.18c-.49,0-.73-.43-.73-.92,0-.55.24-.92.73-.92,2.13,0,3.84-.61,3.84-1.83v-35.44c0-1.22-1.71-1.83-3.84-1.83-.49,0-.73-.55-.73-1.04,0-.55.24-1.04.73-1.04.85,0,2.99.18,8.85.18.73,0,1.04.43,1.04,1.34,0,1.53-.3,4.21-.3,14.46Z"/></g><path class="cls-1" d="m1.47,230.11c23.59-11.05,54.2-17.72,87.66-17.72s61.95,6.22,85.18,16.59"/><g><path class="cls-1" d="m51.88,322.55v-16.8h11.67v3.29h-8.3v2.9h4.82v3.26h-4.82v4.06h8.66v3.29h-12.02Zm6.77-17.88h-2.81l2.09-3.84h4.2l-3.48,3.84Z"/><path class="cls-1" d="m77.08,310.64c-.6-1.15-1.56-1.82-3.07-1.82-2.52,0-3.96,2.21-3.96,5.33s1.46,5.33,3.98,5.33c1.51,0,2.4-.65,3.29-2.14l2.83,1.68c-1.15,2.38-3.17,3.79-6.22,3.79-4.39,0-7.34-3.36-7.34-8.66s3.07-8.67,7.46-8.67c3.17,0,5.09,1.54,6.14,3.72l-3.12,1.44Z"/><path class="cls-1" d="m89.44,322.81c-4.39,0-7.39-3.22-7.39-8.64s3.05-8.69,7.44-8.69,7.37,3.22,7.37,8.64-3.05,8.69-7.42,8.69Zm-.02-13.99c-2.35,0-3.91,1.9-3.91,5.3s1.63,5.35,3.98,5.35,3.91-1.9,3.91-5.3-1.63-5.35-3.98-5.35Z"/><path class="cls-1" d="m100.24,322.55v-16.8h3.36v13.49h8.42v3.31h-11.79Z"/><path class="cls-1" d="m115.12,322.55v-16.8h11.67v3.29h-8.3v2.9h4.82v3.26h-4.82v4.06h8.66v3.29h-12.02Z"/></g></g></svg>