<svg width="460" height="633" viewBox="0 0 460 633" fill="none" xmlns="http://www.w3.org/2000/svg">
<path d="M248.205 118.905C247.017 134.265 234.621 143.6 231.45 145.804C228.279 148.009 234.12 161.307 236.835 162.922C239.551 164.538 241.14 156.657 241.56 153.15C241.98 149.651 251.59 145.831 255.546 139.843C259.494 133.854 262.137 127.919 263.602 126.482C265.067 125.045 266.746 127.294 266.138 132.39C265.531 137.486 264.834 148.705 258.44 158.924C256.662 161.762 263.852 172.177 266.21 174.069C268.568 175.962 270.577 172.65 270.434 168.438C270.291 164.225 269.961 161.601 270.113 160.325C270.265 159.049 276.079 150.811 278.642 140.833C280.714 132.756 281.678 123.68 282.67 121.127C286.349 111.694 290.842 117.941 303.033 109.284C310.267 104.143 313.625 90.8452 306.239 86.9986C294.861 81.0635 291.512 77.5739 291.315 75.4498C291.181 73.9951 309.588 77.3865 312.66 69.6754C316.108 61.0094 316.778 55.8508 318.93 50.6298C324.592 36.8855 329.094 31.1647 336.033 23.4982C340.811 18.2147 331.746 10.8249 315.697 17.8399C306.614 21.8114 282.759 40.7589 277.347 48.1933C271.935 55.6188 267.987 43.8023 253.295 28.7996C238.613 13.7969 222.421 1.70373 207.961 0.945113C193.502 0.1865 192.305 8.54017 195.779 12.5564C208.56 27.327 208.185 27.8357 211.248 42.7313C212.15 47.0955 212.337 56.5648 212.775 62.7944C213.445 72.3975 235.523 72.5492 235.478 74.3164C235.317 80.5727 218.946 79.6088 217.026 86.9807C214.043 98.4045 225.529 112.8 242.007 111.622C250.813 110.998 248.598 113.764 248.205 118.896V118.905Z" fill="#5EC3B5"/>
<path d="M197.208 230.867V251.716C197.208 252.858 198.735 253.349 200.637 253.349C201.075 253.349 201.289 253.733 201.289 254.17C201.289 254.661 201.075 254.991 200.637 254.991C199.932 254.991 198.298 254.83 194.645 254.83C190.992 254.83 189.411 254.991 188.652 254.991C188.214 254.991 188 254.607 188 254.17C188 253.679 188.214 253.349 188.652 253.349C190.554 253.349 192.082 252.805 192.082 251.716V220.086C192.082 218.997 190.554 218.453 188.652 218.453C188.214 218.453 188 217.962 188 217.525C188 217.034 188.214 216.596 188.652 216.596C189.411 216.596 191.322 216.757 196.556 216.757C197.208 216.757 197.485 217.141 197.485 217.953C197.485 219.318 197.208 221.71 197.208 230.858V230.867Z" fill="#1D1D1B"/>
<path d="M205.433 230.376C204.834 230.376 204.558 230.109 204.558 229.725C204.558 229.564 204.611 229.395 204.718 229.234C207.112 224.825 207.719 220.523 207.719 216.552C207.719 215.793 207.934 215.302 208.755 215.302H211.586C212.408 215.302 213.114 215.74 213.114 216.882C213.114 218.024 211.863 222.817 207.228 229.457C206.737 230.216 206.192 230.385 205.433 230.385V230.376Z" fill="#1D1D1B"/>
<path d="M223.25 241.434C223.25 250.199 227.064 253.411 231.422 253.411C234.744 253.411 237.575 251.832 238.995 249.056C239.326 248.512 239.817 248.298 240.415 248.298C240.853 248.298 241.237 248.681 240.96 249.172C239.978 251.403 237.147 255.491 230.064 255.491C223.42 255.491 217.48 250.1 217.48 242.041C217.48 233.982 223.312 228.591 230.395 228.591C237.477 228.591 241.782 234.473 241.782 240.131C241.13 240.345 238.022 240.676 231.645 240.676C228.1 240.676 226.358 240.569 223.312 240.408C223.259 240.515 223.259 240.952 223.259 241.443L223.25 241.434ZM236.218 238.873C236.218 232.831 233.878 230.323 230.172 230.323C226.465 230.323 223.902 232.991 223.42 238.873H236.227H236.218Z" fill="#1D1D1B"/>
<path d="M254.135 251.725C254.135 252.867 255.662 253.358 257.564 253.358C258.002 253.358 258.216 253.742 258.216 254.179C258.216 254.67 258.002 255 257.564 255C256.859 255 255.224 254.839 251.571 254.839C247.919 254.839 246.338 255 245.579 255C245.141 255 244.927 254.616 244.927 254.179C244.927 253.688 245.141 253.358 245.579 253.358C247.481 253.358 249.008 252.813 249.008 251.725V232.509C249.008 231.421 247.481 230.876 245.579 230.876C245.141 230.876 244.927 230.492 244.927 230.055C244.927 229.564 245.141 229.234 245.579 229.234C246.338 229.234 247.758 229.395 252.992 229.395C253.643 229.395 253.867 229.778 253.974 230.591C254.081 231.242 254.135 232.17 254.135 232.982C256.037 230.421 259.038 228.681 263.45 228.681C269.282 228.681 272.497 231.135 272.497 236.9V251.707C272.497 252.849 274.024 253.34 275.927 253.34C276.364 253.34 276.579 253.724 276.579 254.161C276.579 254.652 276.364 254.982 275.927 254.982C275.221 254.982 273.587 254.822 269.934 254.822C266.281 254.822 264.7 254.982 263.941 254.982C263.503 254.982 263.289 254.598 263.289 254.161C263.289 253.67 263.503 253.34 263.941 253.34C265.843 253.34 267.371 252.796 267.371 251.707V237.391C267.371 233.366 265.629 230.965 262.03 230.965C257.886 230.965 254.126 233.357 254.126 238.534V251.707L254.135 251.725Z" fill="#1D1D1B"/>
<path d="M289.93 255.428C289.546 255.428 289.171 255.098 288.894 254.393L280.936 235.553C279.034 231.09 278.811 230.867 276.194 230.867C275.756 230.867 275.542 230.484 275.542 230.046C275.542 229.555 275.756 229.225 276.194 229.225C276.9 229.225 278.266 229.386 281.919 229.386C285.572 229.386 287.036 229.225 287.804 229.225C288.242 229.225 288.456 229.609 288.456 230.046C288.456 230.537 288.242 230.867 287.804 230.867C286.17 230.867 285.295 231.305 285.295 232.554C285.295 233.098 285.455 233.804 285.786 234.625L291.288 248.128C293.52 243.335 295.753 237.454 296.789 234.241C297.003 233.589 297.12 232.938 297.12 232.501C297.12 231.412 296.575 230.867 295.271 230.867C294.833 230.867 294.619 230.537 294.619 230.046C294.619 229.609 294.833 229.225 295.271 229.225C296.03 229.225 298.048 229.386 299.522 229.386C300.996 229.386 302.737 229.225 303.443 229.225C303.88 229.225 304.095 229.555 304.095 230.046C304.095 230.484 303.88 230.867 303.443 230.867C300.612 230.867 300.228 231.849 296.414 241.104L290.912 254.447C290.644 255.098 290.314 255.428 289.93 255.428Z" fill="#1D1D1B"/>
<path d="M331.442 242.032C331.442 249.44 325.395 255.482 317.983 255.482C310.57 255.482 304.523 249.44 304.523 242.032C304.523 234.625 310.57 228.583 317.983 228.583C325.395 228.583 331.442 234.625 331.442 242.032ZM310.302 242.032C310.302 248.949 313.026 253.742 317.983 253.742C323.27 253.742 325.663 248.949 325.663 242.032C325.663 235.116 322.993 230.323 317.983 230.323C312.972 230.323 310.302 234.892 310.302 242.032Z" fill="#1D1D1B"/>
<path d="M343.919 230.867V251.716C343.919 252.858 345.446 253.349 347.348 253.349C347.786 253.349 348 253.733 348 254.17C348 254.661 347.786 254.991 347.348 254.991C346.643 254.991 345.008 254.83 341.356 254.83C337.703 254.83 336.122 254.991 335.363 254.991C334.925 254.991 334.711 254.607 334.711 254.17C334.711 253.679 334.925 253.349 335.363 253.349C337.265 253.349 338.792 252.805 338.792 251.716V220.086C338.792 218.997 337.265 218.453 335.363 218.453C334.925 218.453 334.711 217.962 334.711 217.525C334.711 217.034 334.925 216.596 335.363 216.596C336.122 216.596 338.033 216.757 343.267 216.757C343.919 216.757 344.196 217.141 344.196 217.953C344.196 219.318 343.928 221.71 343.928 230.858L343.919 230.867Z" fill="#1D1D1B"/>
<path d="M189.312 206.27C210.381 196.408 237.719 190.456 267.602 190.456C297.486 190.456 322.93 196.007 343.677 205.262" fill="#66C1BF"/>
<path d="M228.788 278.142C228.252 277.116 227.394 276.518 226.046 276.518C223.795 276.518 222.509 278.49 222.509 281.275C222.509 284.059 223.813 286.032 226.064 286.032C227.412 286.032 228.207 285.452 229.002 284.122L231.53 285.621C230.502 287.745 228.698 289.004 225.974 289.004C222.054 289.004 219.419 286.005 219.419 281.275C219.419 276.545 222.161 273.537 226.082 273.537C228.913 273.537 230.627 274.911 231.565 276.857L228.779 278.142H228.788Z" fill="#72A3AD"/>
<path d="M239.827 289.004C235.906 289.004 233.227 286.13 233.227 281.293C233.227 276.455 235.951 273.537 239.871 273.537C243.792 273.537 246.453 276.411 246.453 281.248C246.453 286.085 243.73 289.004 239.827 289.004ZM239.809 276.518C237.71 276.518 236.317 278.214 236.317 281.248C236.317 284.283 237.772 286.023 239.871 286.023C241.97 286.023 243.363 284.327 243.363 281.293C243.363 278.258 241.908 276.518 239.809 276.518Z" fill="#72A3AD"/>
<path d="M249.471 288.772V273.778H252.472V285.818H259.992V288.772H249.462H249.471Z" fill="#72A3AD"/>
<path d="M262.761 288.772V273.778H265.762V285.818H273.282V288.772H262.752H262.761Z" fill="#72A3AD"/>
<path d="M276.051 288.772V273.778H286.473V276.714H279.061V279.302H283.365V282.212H279.061V285.835H286.795V288.772H276.06H276.051ZM280.382 272.814L277.274 269.387H281.025L282.892 272.814H280.382Z" fill="#72A3AD"/>
<path d="M295.744 289.004C291.823 289.004 289.188 286.005 289.188 281.275C289.188 276.545 291.93 273.537 295.851 273.537C298.914 273.537 300.549 274.974 301.531 277.285L298.682 278.464C298.128 277.348 297.441 276.518 295.806 276.518C293.556 276.518 292.27 278.49 292.27 281.275C292.27 284.059 293.574 286.076 295.824 286.076C297.878 286.076 298.593 285.113 298.763 283.81H296.387V281.007H301.763V282.98C301.763 286.835 299.209 289.022 295.735 289.022L295.744 289.004Z" fill="#72A3AD"/>
<path d="M304.942 288.772V273.778H315.356V276.714H307.943V279.303H312.257V282.212H307.943V285.836H315.686V288.772H304.951H304.942Z" fill="#72A3AD"/>
<path d="M62.366 359.736C61.1781 375.095 48.7818 384.431 45.6112 386.635C42.4407 388.84 48.2816 402.138 50.9967 403.753C53.7117 405.369 55.3015 397.488 55.7212 393.98C56.141 390.482 65.7508 386.662 69.7073 380.673C73.6549 374.685 76.2985 368.75 77.7631 367.313C79.2278 365.876 80.9069 368.125 80.2996 373.221C79.6923 378.317 78.9956 389.536 72.601 399.755C70.8237 402.593 78.0132 413.008 80.371 414.9C82.7288 416.792 84.7383 413.481 84.5954 409.269C84.4525 405.056 84.1221 402.432 84.2739 401.156C84.4257 399.88 90.2399 391.642 92.8031 381.664C94.8751 373.587 95.8397 364.511 96.831 361.958C100.511 352.525 105.003 358.772 117.194 350.115C124.428 344.974 127.786 331.676 120.4 327.829C109.022 321.894 105.673 318.405 105.476 316.281C105.342 314.826 123.749 318.217 126.822 310.506C130.269 301.84 130.939 296.682 133.091 291.461C138.754 277.716 143.255 271.996 150.194 264.329C154.972 259.046 145.907 251.656 129.858 258.671C120.775 262.642 96.9203 281.59 91.5081 289.024C86.0959 296.45 82.1483 284.633 67.4567 269.63C52.7829 254.628 36.5819 242.535 22.1314 241.776C7.67198 241.026 6.46629 249.371 9.94048 253.387C22.7209 268.158 22.3458 268.667 25.4091 283.562C26.3112 287.926 26.4987 297.396 26.9363 303.625C27.6062 313.228 49.6838 313.38 49.6392 315.147C49.4784 321.404 33.1077 320.44 31.1875 327.812C28.2045 339.235 39.6899 353.631 56.1678 352.453C64.9738 351.828 62.7589 354.595 62.366 359.727V359.736Z" fill="#EA5178"/>
<path d="M62.366 359.736C61.1781 375.095 48.7818 384.431 45.6112 386.635C42.4407 388.84 48.2816 402.138 50.9967 403.753C53.7117 405.369 55.3015 397.488 55.7212 393.98C56.141 390.482 65.7508 386.662 69.7073 380.673C73.6549 374.685 76.2985 368.75 77.7631 367.313C79.2278 365.876 80.9069 368.125 80.2996 373.221C79.6923 378.317 78.9956 389.536 72.601 399.755C70.8237 402.593 78.0132 413.008 80.371 414.9C82.7288 416.792 84.7383 413.481 84.5954 409.269C84.4525 405.056 84.1221 402.432 84.2739 401.156C84.4257 399.88 90.2399 391.642 92.8031 381.664C94.8751 373.587 95.8397 364.511 96.831 361.958C100.511 352.525 105.003 358.772 117.194 350.115C124.428 344.974 127.786 331.676 120.4 327.829C109.022 321.894 105.673 318.405 105.476 316.281C105.342 314.826 123.749 318.217 126.822 310.506C130.269 301.84 130.939 296.682 133.091 291.461C138.754 277.716 143.255 271.996 150.194 264.329C154.972 259.046 145.907 251.656 129.858 258.671C120.775 262.642 96.9203 281.59 91.5081 289.024C86.0959 296.45 82.1483 284.633 67.4567 269.63C52.7829 254.628 36.5819 242.535 22.1314 241.776C7.67198 241.026 6.46629 249.371 9.94048 253.387C22.7209 268.158 22.3458 268.667 25.4091 283.562C26.3112 287.926 26.4987 297.396 26.9363 303.625C27.6062 313.228 49.6838 313.38 49.6392 315.147C49.4784 321.404 33.1077 320.44 31.1875 327.812C28.2045 339.235 39.6899 353.631 56.1678 352.453C64.9738 351.828 62.7589 354.595 62.366 359.727V359.736Z" fill="#F37A6A"/>
<path d="M9.20795 471.698V492.547C9.20795 493.689 10.7352 494.18 12.6375 494.18C13.0751 494.18 13.2895 494.564 13.2895 495.001C13.2895 495.492 13.0751 495.822 12.6375 495.822C11.9319 495.822 10.2975 495.661 6.64473 495.661C2.99191 495.661 1.41111 495.822 0.651969 495.822C0.214346 495.822 0 495.438 0 495.001C0 494.51 0.214346 494.18 0.651969 494.18C2.56322 494.18 4.08151 493.635 4.08151 492.547V460.917C4.08151 459.828 2.55429 459.284 0.651969 459.284C0.214346 459.284 0 458.793 0 458.355C0 457.865 0.214346 457.427 0.651969 457.427C1.41111 457.427 3.32236 457.588 8.55598 457.588C9.20795 457.588 9.48481 457.972 9.48481 458.784C9.48481 460.149 9.20795 462.541 9.20795 471.689V471.698Z" fill="#1D1D1B"/>
<path d="M17.4329 471.207C16.8345 471.207 16.5576 470.939 16.5576 470.556C16.5576 470.395 16.6112 470.225 16.7184 470.065C19.1119 465.656 19.7192 461.354 19.7192 457.383C19.7192 456.624 19.9336 456.133 20.7552 456.133H23.5864C24.408 456.133 25.1136 456.57 25.1136 457.713C25.1136 458.855 23.8632 463.648 19.228 470.288C18.7368 471.047 18.192 471.216 17.4329 471.216V471.207Z" fill="#1D1D1B"/>
<path d="M35.25 482.265C35.25 491.029 39.0635 494.242 43.4219 494.242C46.7443 494.242 49.5754 492.663 50.9955 489.887C51.3259 489.343 51.8171 489.128 52.4155 489.128C52.8531 489.128 53.2372 489.512 52.9603 490.003C51.9779 492.234 49.1467 496.322 42.0644 496.322C35.4196 496.322 29.4805 490.931 29.4805 482.872C29.4805 474.813 35.3125 469.422 42.3948 469.422C49.4772 469.422 53.782 475.304 53.782 480.962C53.13 481.176 50.022 481.507 43.6452 481.507C40.0995 481.507 38.358 481.399 35.3125 481.239C35.2589 481.346 35.2589 481.783 35.2589 482.274L35.25 482.265ZM48.2179 479.704C48.2179 473.662 45.8779 471.154 42.1715 471.154C38.4651 471.154 35.9019 473.822 35.4196 479.704H48.2268H48.2179Z" fill="#1D1D1B"/>
<path d="M66.1347 492.555C66.1347 493.698 67.6619 494.189 69.5642 494.189C70.0019 494.189 70.2162 494.572 70.2162 495.01C70.2162 495.501 70.0019 495.831 69.5642 495.831C68.8587 495.831 67.2243 495.67 63.5715 495.67C59.9187 495.67 58.3379 495.831 57.5787 495.831C57.1411 495.831 56.9268 495.447 56.9268 495.01C56.9268 494.519 57.1411 494.189 57.5787 494.189C59.481 494.189 61.0083 493.644 61.0083 492.555V473.34C61.0083 472.251 59.481 471.707 57.5787 471.707C57.1411 471.707 56.9268 471.323 56.9268 470.886C56.9268 470.395 57.1411 470.065 57.5787 470.065C58.3379 470.065 59.7579 470.225 64.9915 470.225C65.6435 470.225 65.8668 470.609 65.9739 471.421C66.0811 472.073 66.1347 473.001 66.1347 473.813C68.037 471.252 71.0379 469.511 75.4498 469.511C81.2818 469.511 84.497 471.966 84.497 477.731V492.538C84.497 493.68 86.0242 494.171 87.9266 494.171C88.3642 494.171 88.5785 494.555 88.5785 494.992C88.5785 495.483 88.3642 495.813 87.9266 495.813C87.221 495.813 85.5866 495.652 81.9338 495.652C78.281 495.652 76.7002 495.813 75.941 495.813C75.5034 495.813 75.2891 495.429 75.2891 494.992C75.2891 494.501 75.5034 494.171 75.941 494.171C77.8434 494.171 79.3706 493.626 79.3706 492.538V478.222C79.3706 474.197 77.629 471.796 74.0298 471.796C69.8858 471.796 66.1258 474.188 66.1258 479.365V492.538L66.1347 492.555Z" fill="#1D1D1B"/>
<path d="M101.93 496.259C101.546 496.259 101.171 495.929 100.894 495.224L92.9364 476.384C91.034 471.921 90.8108 471.698 88.194 471.698C87.7563 471.698 87.542 471.314 87.542 470.877C87.542 470.386 87.7563 470.056 88.194 470.056C88.8995 470.056 90.266 470.217 93.9188 470.217C97.5716 470.217 99.0363 470.056 99.8044 470.056C100.242 470.056 100.456 470.44 100.456 470.877C100.456 471.368 100.242 471.698 99.8044 471.698C98.17 471.698 97.2947 472.135 97.2947 473.385C97.2947 473.929 97.4555 474.634 97.7859 475.455L103.288 488.959C105.52 484.166 107.753 478.285 108.789 475.072C109.003 474.42 109.12 473.769 109.12 473.331C109.12 472.242 108.575 471.698 107.271 471.698C106.833 471.698 106.619 471.368 106.619 470.877C106.619 470.44 106.833 470.056 107.271 470.056C108.03 470.056 110.048 470.217 111.522 470.217C112.996 470.217 114.737 470.056 115.443 470.056C115.88 470.056 116.095 470.386 116.095 470.877C116.095 471.314 115.88 471.698 115.443 471.698C112.612 471.698 112.228 472.68 108.414 481.935L102.912 495.278C102.644 495.929 102.314 496.259 101.93 496.259Z" fill="#1D1D1B"/>
<path d="M143.442 482.863C143.442 490.271 137.395 496.313 129.983 496.313C122.57 496.313 116.523 490.271 116.523 482.863C116.523 475.455 122.57 469.413 129.983 469.413C137.395 469.413 143.442 475.455 143.442 482.863ZM122.302 482.863C122.302 489.78 125.026 494.572 129.983 494.572C135.27 494.572 137.663 489.78 137.663 482.863C137.663 475.946 134.993 471.154 129.983 471.154C124.972 471.154 122.302 475.723 122.302 482.863Z" fill="#1D1D1B"/>
<path d="M155.919 471.698V492.547C155.919 493.689 157.446 494.18 159.348 494.18C159.786 494.18 160 494.564 160 495.001C160 495.492 159.786 495.822 159.348 495.822C158.643 495.822 157.008 495.661 153.356 495.661C149.703 495.661 148.122 495.822 147.363 495.822C146.925 495.822 146.711 495.438 146.711 495.001C146.711 494.51 146.925 494.18 147.363 494.18C149.265 494.18 150.792 493.635 150.792 492.547V460.917C150.792 459.828 149.265 459.284 147.363 459.284C146.925 459.284 146.711 458.793 146.711 458.355C146.711 457.865 146.925 457.427 147.363 457.427C148.122 457.427 150.033 457.588 155.267 457.588C155.919 457.588 156.196 457.972 156.196 458.784C156.196 460.149 155.928 462.541 155.928 471.689L155.919 471.698Z" fill="#1D1D1B"/>
<path d="M1.3125 447.101C22.3809 437.239 49.719 431.286 79.6024 431.286C109.486 431.286 134.93 436.838 155.677 446.093" fill="#F37A6A"/>
<path d="M46.335 529.603V514.609H56.7575V517.545H49.3447V520.133H53.6495V523.043H49.3447V526.666H57.0791V529.603H46.3439H46.335ZM52.3813 513.645H49.8717L51.7383 510.218H55.4893L52.3813 513.645Z" fill="#F37A6A"/>
<path d="M68.8423 518.973C68.3065 517.947 67.4491 517.349 66.1005 517.349C63.8499 517.349 62.5638 519.321 62.5638 522.106C62.5638 524.89 63.8677 526.863 66.1184 526.863C67.467 526.863 68.2618 526.283 69.0567 524.953L71.5842 526.452C70.5571 528.576 68.753 529.835 66.0291 529.835C62.1083 529.835 59.4736 526.836 59.4736 522.106C59.4736 517.376 62.2155 514.368 66.1362 514.368C68.9674 514.368 70.6822 515.742 71.6199 517.688L68.8334 518.973H68.8423Z" fill="#F37A6A"/>
<path d="M79.8794 529.835C75.9586 529.835 73.2793 526.961 73.2793 522.124C73.2793 517.286 76.0033 514.368 79.924 514.368C83.8448 514.368 86.5062 517.242 86.5062 522.079C86.5062 526.916 83.7823 529.835 79.8794 529.835ZM79.8615 517.349C77.7627 517.349 76.3695 519.044 76.3695 522.079C76.3695 525.113 77.8252 526.854 79.924 526.854C82.0228 526.854 83.4161 525.158 83.4161 522.124C83.4161 519.089 81.9603 517.349 79.8615 517.349Z" fill="#F37A6A"/>
<path d="M89.5255 529.603V514.609H92.5264V526.648H100.046V529.603H89.5166H89.5255Z" fill="#F37A6A"/>
<path d="M102.815 529.603V514.609H113.238V517.545H105.825V520.133H110.13V523.043H105.825V526.666H113.56V529.603H102.824H102.815Z" fill="#F37A6A"/>
<path d="M309.208 551.642V572.49C309.208 573.633 310.735 574.123 312.637 574.123C313.075 574.123 313.289 574.507 313.289 574.944C313.289 575.435 313.075 575.766 312.637 575.766C311.932 575.766 310.298 575.605 306.645 575.605C302.992 575.605 301.411 575.766 300.652 575.766C300.214 575.766 300 575.382 300 574.944C300 574.454 300.214 574.123 300.652 574.123C302.554 574.123 304.081 573.579 304.081 572.49V540.861C304.081 539.772 302.554 539.227 300.652 539.227C300.214 539.227 300 538.736 300 538.299C300 537.808 300.214 537.371 300.652 537.371C301.411 537.371 303.322 537.532 308.556 537.532C309.208 537.532 309.485 537.915 309.485 538.727C309.485 540.093 309.208 542.485 309.208 551.633V551.642Z" fill="#1D1D1B"/>
<path d="M317.434 551.151C316.835 551.151 316.559 550.883 316.559 550.499C316.559 550.339 316.612 550.169 316.719 550.008C319.113 545.6 319.72 541.298 319.72 537.326C319.72 536.568 319.935 536.077 320.756 536.077H323.587C324.409 536.077 325.115 536.514 325.115 537.656C325.115 538.799 323.864 543.591 319.229 550.232C318.738 550.99 318.193 551.16 317.434 551.16V551.151Z" fill="#1D1D1B"/>
<path d="M335.251 562.209C335.251 570.973 339.064 574.186 343.423 574.186C346.745 574.186 349.576 572.606 350.996 569.831C351.327 569.286 351.818 569.072 352.416 569.072C352.854 569.072 353.238 569.456 352.961 569.947C351.979 572.178 349.148 576.265 342.065 576.265C335.421 576.265 329.481 570.875 329.481 562.816C329.481 554.756 335.313 549.366 342.396 549.366C349.478 549.366 353.783 555.247 353.783 560.906C353.131 561.12 350.023 561.45 343.646 561.45C340.1 561.45 338.359 561.343 335.313 561.182C335.26 561.289 335.26 561.727 335.26 562.218L335.251 562.209ZM348.219 559.647C348.219 553.605 345.879 551.097 342.172 551.097C338.466 551.097 335.903 553.766 335.421 559.647H348.228H348.219Z" fill="#1D1D1B"/>
<path d="M366.135 572.499C366.135 573.641 367.662 574.132 369.564 574.132C370.002 574.132 370.216 574.516 370.216 574.953C370.216 575.444 370.002 575.774 369.564 575.774C368.859 575.774 367.224 575.614 363.571 575.614C359.919 575.614 358.338 575.774 357.579 575.774C357.141 575.774 356.927 575.391 356.927 574.953C356.927 574.462 357.141 574.132 357.579 574.132C359.481 574.132 361.008 573.588 361.008 572.499V553.284C361.008 552.195 359.481 551.651 357.579 551.651C357.141 551.651 356.927 551.267 356.927 550.83C356.927 550.339 357.141 550.008 357.579 550.008C358.338 550.008 359.758 550.169 364.992 550.169C365.643 550.169 365.867 550.553 365.974 551.365C366.081 552.016 366.135 552.945 366.135 553.757C368.037 551.195 371.038 549.455 375.45 549.455C381.282 549.455 384.497 551.909 384.497 557.675V572.481C384.497 573.624 386.024 574.114 387.926 574.114C388.364 574.114 388.578 574.498 388.578 574.935C388.578 575.426 388.364 575.757 387.926 575.757C387.221 575.757 385.587 575.596 381.934 575.596C378.281 575.596 376.7 575.757 375.941 575.757C375.503 575.757 375.289 575.373 375.289 574.935C375.289 574.445 375.503 574.114 375.941 574.114C377.843 574.114 379.371 573.57 379.371 572.481V558.166C379.371 554.141 377.629 551.74 374.03 551.74C369.886 551.74 366.126 554.132 366.126 559.308V572.481L366.135 572.499Z" fill="#1D1D1B"/>
<path d="M401.93 576.203C401.546 576.203 401.171 575.873 400.894 575.168L392.936 556.327C391.034 551.865 390.811 551.642 388.194 551.642C387.756 551.642 387.542 551.258 387.542 550.821C387.542 550.33 387.756 549.999 388.194 549.999C388.9 549.999 390.266 550.16 393.919 550.16C397.572 550.16 399.036 549.999 399.804 549.999C400.242 549.999 400.456 550.383 400.456 550.821C400.456 551.311 400.242 551.642 399.804 551.642C398.17 551.642 397.295 552.079 397.295 553.328C397.295 553.873 397.455 554.578 397.786 555.399L403.287 568.902C405.52 564.11 407.753 558.228 408.789 555.015C409.003 554.364 409.119 553.712 409.119 553.275C409.119 552.186 408.575 551.642 407.271 551.642C406.833 551.642 406.619 551.311 406.619 550.821C406.619 550.383 406.833 549.999 407.271 549.999C408.03 549.999 410.048 550.16 411.522 550.16C412.996 550.16 414.737 549.999 415.443 549.999C415.88 549.999 416.095 550.33 416.095 550.821C416.095 551.258 415.88 551.642 415.443 551.642C412.611 551.642 412.227 552.623 408.414 561.878L402.912 575.221C402.644 575.873 402.314 576.203 401.93 576.203Z" fill="#1D1D1B"/>
<path d="M443.442 562.807C443.442 570.214 437.396 576.256 429.983 576.256C422.57 576.256 416.524 570.214 416.524 562.807C416.524 555.399 422.57 549.357 429.983 549.357C437.396 549.357 443.442 555.399 443.442 562.807ZM422.302 562.807C422.302 569.723 425.026 574.516 429.983 574.516C435.27 574.516 437.664 569.723 437.664 562.807C437.664 555.89 434.993 551.097 429.983 551.097C424.973 551.097 422.302 555.667 422.302 562.807Z" fill="#1D1D1B"/>
<path d="M455.918 551.642V572.49C455.918 573.633 457.446 574.123 459.348 574.123C459.786 574.123 460 574.507 460 574.944C460 575.435 459.786 575.766 459.348 575.766C458.642 575.766 457.008 575.605 453.355 575.605C449.702 575.605 448.122 575.766 447.362 575.766C446.925 575.766 446.71 575.382 446.71 574.944C446.71 574.454 446.925 574.123 447.362 574.123C449.265 574.123 450.792 573.579 450.792 572.49V540.861C450.792 539.772 449.265 539.227 447.362 539.227C446.925 539.227 446.71 538.736 446.71 538.299C446.71 537.808 446.925 537.371 447.362 537.371C448.122 537.371 450.033 537.532 455.266 537.532C455.918 537.532 456.195 537.915 456.195 538.727C456.195 540.093 455.927 542.485 455.927 551.633L455.918 551.642Z" fill="#1D1D1B"/>
<path d="M323.247 363.506C324.149 367.87 324.337 377.34 324.774 383.569C325.444 393.172 347.522 393.324 347.477 395.091C347.316 401.348 330.946 400.384 329.026 407.756C326.043 419.179 337.528 433.575 354.006 432.397C362.812 431.772 360.597 434.539 360.204 439.671C359.016 455.03 346.62 464.366 343.449 466.57C340.279 468.775 346.12 482.073 348.835 483.688C351.55 485.303 353.139 477.423 353.559 473.915C353.979 470.417 363.589 466.597 367.545 460.608C371.493 454.62 374.136 448.685 375.601 447.248C377.066 445.811 378.745 448.06 378.138 453.156C377.53 458.252 376.834 469.471 370.439 479.69C368.662 482.528 375.851 492.943 378.209 494.835C380.567 496.736 382.576 493.416 382.433 489.204C382.29 484.991 381.96 482.367 382.112 481.091C382.264 479.815 388.078 471.577 390.641 461.599C392.713 453.522 393.678 444.446 394.669 441.893C398.349 432.46 402.841 438.707 415.032 430.05C422.266 424.909 425.624 411.611 418.238 407.764C406.86 401.829 403.511 398.34 403.314 396.216C403.18 394.761 421.587 398.152 424.659 390.441C428.107 381.775 428.777 376.617 430.929 371.396C436.591 357.652 441.093 351.931 448.032 344.264C452.81 338.981 443.745 331.591 427.696 338.606C418.613 342.578 394.758 361.525 389.346 368.959C383.934 376.394 379.986 364.568 365.295 349.566C350.612 334.572 334.42 322.479 319.961 321.72C305.51 320.971 304.304 329.315 307.779 333.331C320.559 348.102 320.184 348.611 323.247 363.506Z" fill="#8A2F89"/>
<path d="M379.602 511.23C349.719 511.23 322.372 517.183 301.312 527.045L455.686 526.036C434.939 516.781 408.458 511.23 379.611 511.23H379.602Z" fill="#8A2F89"/>
<path d="M335.724 609.546V594.552H346.147V597.489H338.734V600.077H343.039V602.986H338.734V606.61H346.468V609.546H335.733H335.724ZM341.77 593.588H339.261L341.127 590.161H344.878L341.77 593.588Z" fill="#8A2F89"/>
<path d="M358.239 598.917C357.703 597.89 356.846 597.292 355.497 597.292C353.247 597.292 351.961 599.265 351.961 602.049C351.961 604.834 353.265 606.806 355.515 606.806C356.864 606.806 357.659 606.226 358.454 604.896L360.981 606.396C359.954 608.52 358.15 609.778 355.426 609.778C351.505 609.778 348.871 606.779 348.871 602.049C348.871 597.319 351.612 594.311 355.533 594.311C358.364 594.311 360.079 595.686 361.017 597.631L358.23 598.917H358.239Z" fill="#8A2F89"/>
<path d="M369.269 609.778C365.349 609.778 362.669 606.904 362.669 602.067C362.669 597.23 365.393 594.311 369.314 594.311C373.235 594.311 375.896 597.185 375.896 602.022C375.896 606.86 373.172 609.778 369.269 609.778ZM369.252 597.292C367.153 597.292 365.76 598.988 365.76 602.022C365.76 605.057 367.215 606.797 369.314 606.797C371.413 606.797 372.806 605.101 372.806 602.067C372.806 599.033 371.35 597.292 369.252 597.292Z" fill="#8A2F89"/>
<path d="M378.915 609.546V594.552H381.916V606.592H389.435V609.546H378.906H378.915Z" fill="#8A2F89"/>
<path d="M392.204 609.546V594.552H402.627V597.489H395.214V600.077H399.519V602.986H395.214V606.61H402.948V609.546H392.213H392.204Z" fill="#8A2F89"/>
<path d="M421.748 609.546L420.614 608.323C419.435 609.287 417.997 609.778 416.238 609.778C413.174 609.778 411.308 608.493 411.308 605.798C411.308 603.7 412.469 602.433 414.371 601.496L413.987 601.067C413.192 600.193 412.683 599.229 412.683 598.024C412.683 595.579 414.612 594.32 417.14 594.32C418.979 594.32 420.185 594.874 421.623 595.882L420.185 598.042C419.203 597.292 418.131 596.971 417.059 596.971C416.184 596.971 415.648 597.337 415.648 597.953C415.648 598.569 415.97 599.024 416.443 599.577L420.578 604.289C420.917 603.602 421.266 602.79 421.632 601.808L424.052 602.576C423.579 604.031 423.025 605.298 422.355 606.324L425.186 609.537H421.757L421.748 609.546ZM415.961 603.245C414.782 603.87 414.308 604.637 414.308 605.539C414.308 606.503 415.077 607.127 416.577 607.127C417.497 607.127 418.274 606.913 418.89 606.467L415.952 603.254L415.961 603.245Z" fill="#8A2F89"/>
<path d="M340.788 621.229C340.252 620.202 339.395 619.604 338.046 619.604C335.796 619.604 334.51 621.577 334.51 624.361C334.51 627.146 335.814 629.118 338.064 629.118C339.413 629.118 340.208 628.538 341.002 627.208L343.53 628.708C342.503 630.832 340.699 632.09 337.975 632.09C334.054 632.09 331.419 629.091 331.419 624.361C331.419 619.631 334.161 616.623 338.082 616.623C340.913 616.623 342.628 617.998 343.566 619.943L340.779 621.229H340.788Z" fill="#8A2F89"/>
<path d="M351.827 632.09C347.906 632.09 345.227 629.216 345.227 624.379C345.227 619.542 347.951 616.623 351.871 616.623C355.792 616.623 358.453 619.497 358.453 624.334C358.453 629.172 355.729 632.09 351.827 632.09ZM351.809 619.604C349.71 619.604 348.317 621.3 348.317 624.334C348.317 627.369 349.772 629.109 351.871 629.109C353.97 629.109 355.363 627.414 355.363 624.379C355.363 621.345 353.908 619.604 351.809 619.604Z" fill="#8A2F89"/>
<path d="M361.472 631.858V616.864H364.473V628.904H371.993V631.858H361.463H361.472Z" fill="#8A2F89"/>
<path d="M374.761 631.858V616.864H377.762V628.904H385.282V631.858H374.752H374.761Z" fill="#8A2F89"/>
<path d="M388.051 631.858V616.864H398.474V619.801H391.061V622.389H395.366V625.298H391.061V628.922H398.795V631.858H388.06H388.051ZM392.383 615.901L389.275 612.473H393.026L394.892 615.901H392.383Z" fill="#8A2F89"/>
<path d="M407.744 632.09C403.823 632.09 401.188 629.091 401.188 624.361C401.188 619.631 403.93 616.623 407.851 616.623C410.914 616.623 412.549 618.06 413.531 620.372L410.682 621.55C410.128 620.434 409.441 619.604 407.806 619.604C405.556 619.604 404.27 621.577 404.27 624.361C404.27 627.146 405.574 629.163 407.824 629.163C409.878 629.163 410.593 628.199 410.763 626.896H408.387V624.093H413.763V626.066C413.763 629.921 411.209 632.108 407.735 632.108L407.744 632.09Z" fill="#8A2F89"/>
<path d="M416.943 631.858V616.864H427.356V619.801H419.944V622.389H424.257V625.298H419.944V628.922H427.687V631.858H416.952H416.943Z" fill="#8A2F89"/>
</svg>
