<?xml version="1.0" encoding="UTF-8"?><svg id="Calque_2" xmlns="http://www.w3.org/2000/svg" viewBox="0 0 160.3 194.64"><defs><style>.cls-1{fill:#8a2f89;}</style></defs><g id="Calque_2-2"><g id="Layer_1"><path class="cls-1" d="m19.15,46.87c1.01,4.89,1.22,15.5,1.71,22.48.75,10.76,25.47,10.93,25.42,12.91-.18,7.01-18.51,5.93-20.66,14.19-3.34,12.8,9.52,28.93,27.97,27.61,9.86-.7,7.38,2.4,6.94,8.15-1.33,17.21-15.21,27.67-18.76,30.14-3.55,2.47,2.99,17.37,6.03,19.18,3.04,1.81,4.82-7.02,5.29-10.95.47-3.92,11.23-8.2,15.66-14.91,4.42-6.71,7.38-13.36,9.02-14.97,1.64-1.61,3.52.91,2.84,6.62-.68,5.71-1.46,18.28-8.62,29.73-1.99,3.18,6.06,14.85,8.7,16.97,2.64,2.13,4.89-1.59,4.73-6.31-.16-4.72-.53-7.66-.36-9.09s6.68-10.66,9.55-21.84c2.32-9.05,3.4-19.22,4.51-22.08,4.12-10.57,9.15-3.57,22.8-13.27,8.1-5.76,11.86-20.66,3.59-24.97-12.74-6.65-16.49-10.56-16.71-12.94-.15-1.63,20.46,2.17,23.9-6.47,3.86-9.71,4.61-15.49,7.02-21.34,6.34-15.4,11.38-21.81,19.15-30.4,5.35-5.92-4.8-14.2-22.77-6.34-10.17,4.45-36.88,25.68-42.94,34.01s-10.48-4.92-26.93-21.73C49.79,14.45,31.66.9,15.47.05-.71-.79-2.06,8.56,1.83,13.06c14.31,16.55,13.89,17.12,17.32,33.81Z"/></g></g></svg>